<?xml version="1.0" encoding="UTF-8" standalone="no"?>
<!-- Created with Inkscape (http://www.inkscape.org/) -->

<svg
   xmlns:dc="http://purl.org/dc/elements/1.1/"
   xmlns:cc="http://creativecommons.org/ns#"
   xmlns:rdf="http://www.w3.org/1999/02/22-rdf-syntax-ns#"
   xmlns:svg="http://www.w3.org/2000/svg"
   xmlns="http://www.w3.org/2000/svg"
   xmlns:sodipodi="http://sodipodi.sourceforge.net/DTD/sodipodi-0.dtd"
   xmlns:inkscape="http://www.inkscape.org/namespaces/inkscape"
   width="1080px"
   height="1080px"
   viewBox="0 0 1080 1080"
   version="1.1"
   id="SVGRoot"
   inkscape:version="0.92.5 (2060ec1f9f, 2020-04-08)"
   sodipodi:docname="bcode_logo.svg"
   inkscape:export-filename="/home/carlos/Pictures/logo final/logo512x512.png"
   inkscape:export-xdpi="45.511112"
   inkscape:export-ydpi="45.511112">
  <defs
     id="defs8823">
    <filter
       style="color-interpolation-filters:sRGB;"
       inkscape:label="Colorize"
       id="filter9427">
      <feComposite
         in2="SourceGraphic"
         operator="arithmetic"
         k1="0"
         k2="1"
         result="composite1"
         id="feComposite9413" />
      <feColorMatrix
         in="composite1"
         values="1"
         type="saturate"
         result="colormatrix1"
         id="feColorMatrix9415" />
      <feFlood
         flood-opacity="0.8"
         flood-color="rgb(84,219,239)"
         result="flood1"
         id="feFlood9417" />
      <feBlend
         in="flood1"
         in2="colormatrix1"
         mode="multiply"
         result="blend1"
         id="feBlend9419" />
      <feBlend
         in2="blend1"
         mode="screen"
         result="blend2"
         id="feBlend9421" />
      <feColorMatrix
         in="blend2"
         values="1"
         type="saturate"
         result="colormatrix2"
         id="feColorMatrix9423" />
      <feComposite
         in="colormatrix2"
         in2="SourceGraphic"
         operator="in"
         k2="1"
         result="composite2"
         id="feComposite9425" />
    </filter>
  </defs>
  <sodipodi:namedview
     id="base"
     pagecolor="#ffffff"
     bordercolor="#666666"
     borderopacity="1.0"
     inkscape:pageopacity="0.0"
     inkscape:pageshadow="2"
     inkscape:zoom="0.7"
     inkscape:cx="632.25977"
     inkscape:cy="546.17995"
     inkscape:document-units="px"
     inkscape:current-layer="layer3"
     showgrid="false"
     inkscape:window-width="1813"
     inkscape:window-height="994"
     inkscape:window-x="1024"
     inkscape:window-y="137"
     inkscape:window-maximized="0" />
  <metadata
     id="metadata8826">
    <rdf:RDF>
      <cc:Work
         rdf:about="">
        <dc:format>image/svg+xml</dc:format>
        <dc:type
           rdf:resource="http://purl.org/dc/dcmitype/StillImage" />
        <dc:title></dc:title>
      </cc:Work>
    </rdf:RDF>
  </metadata>
  <g
     inkscape:groupmode="layer"
     id="layer3"
     inkscape:label="barco"
     style="display:inline">
    <path
       style="fill:#0028d0;stroke-width:1.33333325;filter:url(#filter9427)"
       inkscape:connector-curvature="0"
       d="m 543.42902,244.89179 c 11.84,17.78667 43.74667,-4.94666 49.46667,21.29333 -16.45333,-11.22666 -35.08,-0.72 -53.34667,-3.37333 -6.08,10.84 -10.65333,22.57333 -15.97333,33.81333 17.86667,10.68 36.50667,22.4 56.04,28.97334 4.22667,-13.04 -3.06667,-28.6 -9.08,-40.98667 18.2,10.50667 35.45333,22.56 53.37333,33.56 2.42667,1.69333 6.44,2.01333 7.49334,-1.4 10.44,-20.62667 22.05333,-40.65333 32.25333,-61.4 6.88,16.66667 30.08,-0.78667 40.64,14.24 -15.05334,-0.96 -30,1.88 -44.82667,4.02667 -7.17333,17.36 -16.45333,34.33333 -22.34666,52.09333 14.78666,11.04 32.94666,17.2 47.47999,28.77333 20.81334,24.76 26.78667,60.98667 16.6,91.50666 40.49334,60.05334 104.24,97.89334 164.49333,135.28 17.26667,-0.90667 32.74667,-11.78666 49.93334,-14.32 v 3.78667 c -63.52,30.70666 -130.86667,53.10666 -195.24,81.48 -13.66667,26.58666 -26.90667,55.96 -53.88,71.58666 -53.56,14.57333 -109.48,16.12 -164.55999,19.37333 -56.84,0.68 -117.38667,3.74667 -170.12,-21.29333 -11.54667,-38.06666 -31.57334,-73.48 -57.64,-103.62666 -2.61334,-5.30667 -11.38667,-10.16 -9.57334,-16.44 71.57334,-62.53333 118.25334,-146.77333 173.25334,-222.90666 1.89333,-5.25334 -5.81334,-6.04 -7.54667,-10.06667 24.98667,5.57333 29.62667,-29.58666 46.58667,-41.50666 -0.58667,12.4 -8.61334,22.55999 -10.58667,34.43999 18.85333,-5.92 31,-29.01333 23.82667,-48.10666 -3.90667,-20.26667 -18.50667,-35.61333 -30.64,-51.36 20.24,6.92 36.61333,21.4 55.89333,30.25333 12.2,-13.93333 18.73333,-31.85333 28.02666,-47.69333 m -67.70666,137.46666 c -2.8,2.82667 -4.02667,8.02667 0.29333,10.10667 20.82667,12.25333 40.68,26.86667 62.2,37.64 -11.01333,-24.93333 -36.84,-40.81333 -62.49333,-47.74667 m -20.90667,1.50667 c -13.26666,27.25333 -30.54666,52.36 -45.4,78.76 -31.09333,54.57333 -52.25333,114.24 -67.52,174.97333 -3.72,6.61333 -17.17333,5.56 -18.09333,13.73333 6.34667,1.97333 13.56,2.30667 19.88,0.77333 17.25333,-34.30666 32.08,-70.2 49.05333,-104.82666 1.81334,-5 6.61334,-11.05333 1.48,-15.57333 -4.22666,-6.24 6.84,2.12 6.48,-4.28 21.86667,-45.06667 42.25334,-90.89333 61.54667,-137.09333 -1.52,-2.8 -3.34667,-8.02667 -7.42667,-6.46667 m 13,15.88 c -19,35.57333 -33.28,74.05333 -50.81333,110.58666 -1.12,2.65334 -5.70667,11.92 0.61333,9.94667 20.94667,-7.41333 41.53334,-19.25333 54.01334,-38.14667 12.94666,-25.14666 14.34666,-60.43999 -3.81334,-82.38666 m 93.89333,4.09333 c -3.84,6.61334 27.36,26.6 30.24,9.18667 4.4,-15.86667 -22.52,-7.06667 -30.24,-9.18667 m 42.21334,6.4 c -3.38667,4.8 -6.93334,10.68 -6.68,16.68 19.77333,13.97334 41.84,24.85333 62.05333,38.36 4.34666,2.38667 2.92,-3.38667 1.77333,-5.64 -12.14666,-22.69333 -32.77333,-41 -57.14666,-49.4 m 88.34666,49.77333 c -6.94667,5.88 -13.65333,12.13334 -21.97333,16.08 2.46666,18.82667 1.26666,39.17334 -9.29334,55.54667 -2.52,5.78667 -8.86666,12.42667 -4.13333,18.65333 12.18667,22.2 11.81333,48.72 6.81333,72.86667 39.72,11.77333 84.32,-1.69334 121.06667,-15.34667 -36.64,-44.18666 -68.06667,-93.29333 -89.30667,-146.82666 -0.72,-1.54667 -1.77333,-1.88 -3.17333,-0.97334 m -142.76,20.06667 c -20.05333,0.0533 5.68,12.92 11.77334,11.88 9,-9.05333 -1.88,-14.94667 -11.77334,-11.88 m 26.64,5 c -2.16,4.09333 -5.05333,8.12 -5.65333,12.81333 25.21333,15.61334 50.77333,30.81334 75.38667,47.4 3.94666,2.88 5.55999,-4.88 3.08,-6.94666 -15.06667,-27.01334 -43.04,-46.48 -72.81334,-53.26667 m -166.71999,42.73333 c -1.86667,3.13334 -3.34667,8.45334 0.74666,10.34667 31.09334,21.70667 65.32,38.30667 98.28,56.86666 3.69334,2.04 5.82667,-2.05333 3.54667,-4.94666 -23.29333,-34.37333 -62.77333,-54.72 -102.57333,-62.26667 m -8.30667,23.8 c -11.28,29.33333 -21.18666,59.98667 -29.29333,90.22667 24.25333,-7.72 29.86666,-37.90667 34.38666,-59.97334 -0.48,-9.13333 2.70667,-24.61333 -5.09333,-30.25333 m 402.30666,24.37334 c -14.08,1.36 -20.53333,20.31999 -11.26667,30.05333 18.08,-2.82667 36.41333,-11.18667 52.66667,-17.29334 -7.74667,-11.38666 -28.01334,-13.77333 -41.4,-12.75999 m -218.94666,17.59999 c -22.02667,4.33334 -60.36,3.36 -61.61334,33.53334 44.93334,-4 90.14667,-6.14667 135.18667,-2.61334 6.65333,-4.08 0.24,-13.45333 -3.97334,-16.77333 -19.47999,-14.94667 -46.14666,-16.16 -69.59999,-14.14667 m -79.98667,21.30667 c -16.09333,4.98667 -32.32,10.89333 -46.64,19.94667 14.92,1.49333 29.89334,-4.36 44.53334,-6.88 4.52,-2.54667 12.69333,-17.62667 2.10666,-13.06667 m -223.28,2.97333 c 10.02667,12.17334 21.37334,25.36 35.2,32.68 -9.78666,-12.46666 -23.32,-22.08 -35.2,-32.68 m 169.68,7.48 c -23.78666,4.53334 -47.34666,12.06667 -70.11999,19.94667 20.41333,-0.25333 43.83999,-1.88 64.35999,-8.04 4.49334,-1.34667 16.68,-13.48 5.76,-11.90667 z"
       id="path2"
       transform="matrix(1.2625129,0,0,1.245921,-219.25947,-107.06268)" />
  </g>
  <g
     inkscape:groupmode="layer"
     id="layer4"
     inkscape:label="brazos"
     style="display:inline">
    <path
       style="fill:#00b4fc;stroke-width:0.54340386"
       inkscape:connector-curvature="0"
       id="path6"
       d="M 1074.3334,311.07087 C 1023.7212,-57.795463 546.33448,-81.155398 238.6079,199.87207 v 31.03828 C 545.93045,-6.2652936 982.00568,-4.7527197 1021.6878,335.03138 1035.0591,447.59391 992.94473,564.66364 917.4327,632.0244 v 88.15288 c 90.9003,-49.8662 183.8177,-211.26175 156.9007,-409.10641 M 514.75331,956.89842 C 302.38375,986.28627 81.104743,940.02914 50.12614,690.9408 34.74154,568.28651 72.193704,438.10562 121.59517,357.33621 V 314.09038 C 32.51523,431.31999 -15.872285,579.59876 12.066039,754.67859 47.695745,979.35172 237.59579,1106.5268 527.50925,1064.1822 642.29754,1047.6136 792.52087,992.16005 896.77604,906.13402 V 783.91511 C 802.03088,868.74538 645.33046,938.83076 514.75331,956.89842 Z" />
  </g>
  <g
     inkscape:groupmode="layer"
     id="layer5"
     inkscape:label="texto-BLUE CODE"
     style="display:none">
    <text
       xml:space="preserve"
       style="font-style:normal;font-weight:normal;font-size:47.33336258px;line-height:1.25;font-family:sans-serif;letter-spacing:0px;word-spacing:0px;fill:#ffffff;fill-opacity:1;stroke:none;stroke-width:1.18333411"
       x="230.82712"
       y="692.27655"
       id="text9432"
       transform="scale(0.89592086,1.11617)"><tspan
         sodipodi:role="line"
         id="tspan9430"
         x="230.82712"
         y="692.27655"
         style="font-size:63.11114883px;stroke-width:1.18333411">&lt;BLUE CODE/&gt;</tspan></text>
  </g>
</svg>
